<?xml version="1.0" encoding="utf-8"?>
<!-- Generator: Adobe Illustrator 24.0.2, SVG Export Plug-In . SVG Version: 6.00 Build 0)  -->
<svg width="178" height="80" version="1.1" id="Layer_1" xmlns="http://www.w3.org/2000/svg" xmlns:xlink="http://www.w3.org/1999/xlink"
	 viewBox="270 400 225 105">
<style type="text/css">
	.st0{fill:#FFED00;}
	.st1{fill:#004F9F;}
	.st2{fill:#E6007E;}
</style>
<g>
	<g>
		<rect x="477.86" y="409.77" class="st0" width="14.41" height="14.42"/>
		<path class="st1" d="M289.19,409.77v18.75h23.21v13.99h-27.68c-4.33,0-7.88-1.42-10.63-4.26c-2.74-2.83-4.12-6.23-4.12-10.16
			v-18.32H289.19z M316.86,446.84h-29.23v14.42h33.69c2.16,0,4.16-0.39,6.01-1.18c1.85-0.78,3.42-1.83,4.69-3.14
			c1.26-1.31,2.26-2.86,2.95-4.63c0.7-1.78,1.05-3.6,1.05-5.47v-37.07h-19.17V446.84z"/>
		<path class="st1" d="M400.08,409.77c2.16,0,4.16,0.38,6.01,1.16c1.85,0.77,3.41,1.81,4.69,3.13c1.27,1.31,2.26,2.85,2.96,4.63
			c0.7,1.78,1.04,3.61,1.04,5.51h-46.37v37.07h-19.22v-51.49H400.08z M372.84,442.48h27.24c2.2,0,4.22-0.37,6.05-1.12
			c1.82-0.74,3.37-1.74,4.65-2.98c1.27-1.24,2.26-2.73,2.96-4.46c0.7-1.74,1.04-3.53,1.04-5.4h-41.95V442.48z"/>
		<path class="st1" d="M426.5,409.77h48.11v14.42h-28.9v22.65h28.1v-4.37h-23.64v-13.95h26.15c2.78,0,5.47,0.75,8.06,2.24
			c2.6,1.49,4.68,3.49,6.25,6c1.58,2.51,2.37,5.22,2.37,8.13c0,2.91-0.68,5.63-2.04,8.14c-1.36,2.53-3.2,4.53-5.57,6
			c-2.36,1.48-4.88,2.22-7.57,2.22H426.5V409.77z"/>
		<rect x="270.53" y="446.84" class="st2" width="14.41" height="14.42"/>
	</g>
	<g>
		<path class="st1" d="M269.99,473.2h18.38v23.11h-4.66v-19.23h-9.05v19.23h-4.66V473.2z"/>
		<path class="st1" d="M292.18,484.89c0-2.35,0.35-4.33,1.06-5.93c0.53-1.18,1.24-2.23,2.15-3.17c0.91-0.94,1.9-1.63,2.99-2.08
			c1.44-0.61,3.1-0.91,4.98-0.91c3.41,0,6.13,1.06,8.17,3.17c2.04,2.11,3.06,5.05,3.06,8.81c0,3.73-1.01,6.65-3.04,8.76
			c-2.03,2.1-4.74,3.16-8.13,3.16c-3.43,0-6.17-1.05-8.19-3.14C293.19,491.45,292.18,488.57,292.18,484.89z M296.99,484.73
			c0,2.62,0.61,4.6,1.81,5.95c1.21,1.35,2.74,2.03,4.6,2.03s3.39-0.67,4.58-2.01c1.19-1.34,1.79-3.35,1.79-6.03
			c0-2.65-0.58-4.62-1.74-5.93c-1.16-1.3-2.7-1.95-4.63-1.95s-3.47,0.66-4.65,1.97C297.58,480.09,296.99,482.07,296.99,484.73z"/>
		<path class="st1" d="M319.08,473.2h16.19v23.11h-4.66v-19.2h-6.95v9.87c0,2.82-0.09,4.8-0.28,5.91c-0.19,1.12-0.65,1.99-1.38,2.62
			c-0.73,0.63-1.88,0.94-3.43,0.94c-0.55,0-1.54-0.06-2.98-0.16v-3.61l1.04,0.02c0.98,0,1.63-0.13,1.97-0.4s0.51-0.91,0.51-1.94
			l-0.02-3.97V473.2z"/>
		<path class="st1" d="M340.14,473.2h4.37v15.38l9.36-15.38h4.65v23.11h-4.37v-15.08l-9.35,15.08h-4.66V473.2z"/>
		<path class="st1" d="M363.51,473.2h15.65v3.88h-10.98v19.23h-4.67V473.2z"/>
		<path class="st1" d="M381.57,496.3V473.2h7.49c2.84,0,4.69,0.12,5.55,0.35c1.32,0.35,2.43,1.1,3.32,2.26
			c0.89,1.16,1.34,2.66,1.34,4.5c0,1.42-0.26,2.61-0.78,3.58c-0.51,0.97-1.17,1.73-1.96,2.28c-0.8,0.55-1.6,0.91-2.42,1.09
			c-1.11,0.22-2.73,0.33-4.84,0.33h-3.04v8.72H381.57z M386.23,477.1v6.56h2.56c1.84,0,3.07-0.12,3.69-0.36
			c0.62-0.24,1.1-0.62,1.46-1.14c0.35-0.51,0.53-1.12,0.53-1.8c0-0.84-0.25-1.54-0.74-2.08c-0.49-0.55-1.12-0.89-1.88-1.02
			c-0.56-0.1-1.68-0.16-3.36-0.16H386.23z"/>
		<path class="st1" d="M421.09,496.3h-5.07l-2.02-5.25h-9.23l-1.91,5.25h-4.95l9-23.11h4.93L421.09,496.3z M412.5,487.16l-3.18-8.57
			l-3.12,8.57H412.5z"/>
		<path class="st1" d="M436.48,493.61v2.69h-4.57v-2.69c-3.69-0.14-6.29-1.05-7.81-2.73c-1.52-1.69-2.27-3.8-2.27-6.33
			c0-2.67,0.79-4.81,2.38-6.42c1.59-1.61,4.15-2.48,7.71-2.62v-2.29h4.57v2.29c3.67,0.14,6.26,1.04,7.79,2.71
			c1.53,1.67,2.29,3.79,2.29,6.35c0,2.54-0.76,4.65-2.28,6.33C442.75,492.56,440.15,493.47,436.48,493.61z M431.91,489.71v-10.32
			c-1.97,0-3.38,0.44-4.26,1.31c-0.87,0.88-1.31,2.2-1.31,3.98C426.34,488.04,428.2,489.71,431.91,489.71z M436.48,489.71
			c1.22,0,2.27-0.21,3.14-0.62c0.88-0.41,1.5-0.96,1.87-1.65c0.36-0.69,0.55-1.71,0.55-3.04c0-3.34-1.86-5.01-5.56-5.01V489.71z"/>
		<path class="st1" d="M450.37,473.2h4.37v15.38l9.36-15.38h4.65v23.11h-4.37v-15.08l-9.35,15.08h-4.66V473.2z"/>
		<path class="st1" d="M487.33,496.3v-9.65h-0.95c-1.47,0-2.51,0.22-3.11,0.66c-0.61,0.44-1.64,1.76-3.1,3.96l-3.37,5.03h-5.58
			l2.82-4.51c1.11-1.79,2-3.04,2.66-3.76c0.66-0.72,1.49-1.36,2.49-1.93c-2.15-0.34-3.71-1.09-4.66-2.25
			c-0.95-1.16-1.43-2.55-1.43-4.17c0-1.4,0.36-2.65,1.06-3.74c0.71-1.08,1.64-1.82,2.81-2.19c1.16-0.37,2.9-0.56,5.21-0.56H492
			v23.11H487.33z M487.33,477.1h-3.64c-1.85,0-3.07,0.04-3.65,0.13c-0.59,0.08-1.09,0.37-1.51,0.85c-0.42,0.48-0.63,1.12-0.63,1.89
			c0,0.81,0.2,1.45,0.61,1.93s0.92,0.78,1.55,0.89c0.62,0.11,1.9,0.17,3.82,0.17h3.45V477.1z"/>
	</g>
</g>
</svg>
